<?xml version="1.0" encoding="UTF-8"?>
<svg xmlns="http://www.w3.org/2000/svg" viewBox="0 0 32 32" width="512" height="512" shape-rendering="crispEdges">
  <rect x="0" y="0" width="32" height="32" fill="#0f1113" rx="5" ry="5" />
  <g fill="#eef2f6" transform="translate(16 16) scale(0.92) translate(-16 -16)">
    <rect x="15" y="2" width="0.92" height="0.92" rx="0.18" opacity="0.95" />
    <rect x="13" y="3" width="0.92" height="0.92" rx="0.18" opacity="0.95" />
    <rect x="17" y="3" width="0.92" height="0.92" rx="0.18" opacity="0.95" />
    <rect x="11" y="4" width="0.92" height="0.92" rx="0.18" opacity="0.95" />
    <rect x="15" y="4" width="0.92" height="0.92" rx="0.18" opacity="0.95" />
    <rect x="19" y="4" width="0.92" height="0.92" rx="0.18" opacity="0.95" />
    <rect x="9" y="5" width="0.92" height="0.92" rx="0.18" opacity="0.95" />
    <rect x="13" y="5" width="0.92" height="0.92" rx="0.18" opacity="0.95" />
    <rect x="17" y="5" width="0.92" height="0.92" rx="0.18" opacity="0.95" />
    <rect x="21" y="5" width="0.92" height="0.92" rx="0.18" opacity="0.95" />
    <rect x="7" y="6" width="0.92" height="0.92" rx="0.18" opacity="0.95" />
    <rect x="11" y="6" width="0.92" height="0.92" rx="0.18" opacity="0.95" />
    <rect x="15" y="6" width="0.92" height="0.92" rx="0.18" opacity="0.95" />
    <rect x="19" y="6" width="0.92" height="0.92" rx="0.18" opacity="0.95" />
    <rect x="23" y="6" width="0.92" height="0.92" rx="0.18" opacity="0.95" />
    <rect x="5" y="7" width="0.92" height="0.92" rx="0.18" opacity="0.95" />
    <rect x="9" y="7" width="0.92" height="0.92" rx="0.18" opacity="0.95" />
    <rect x="13" y="7" width="0.92" height="0.92" rx="0.18" opacity="0.95" />
    <rect x="17" y="7" width="0.92" height="0.92" rx="0.18" opacity="0.95" />
    <rect x="21" y="7" width="0.92" height="0.92" rx="0.18" opacity="0.95" />
    <rect x="25" y="7" width="0.92" height="0.92" rx="0.18" opacity="0.95" />
    <rect x="3" y="8" width="0.92" height="0.92" rx="0.18" opacity="0.95" />
    <rect x="7" y="8" width="0.92" height="0.92" rx="0.18" opacity="0.95" />
    <rect x="11" y="8" width="0.92" height="0.92" rx="0.18" opacity="0.95" />
    <rect x="15" y="8" width="0.92" height="0.92" rx="0.18" opacity="0.95" />
    <rect x="19" y="8" width="0.92" height="0.92" rx="0.18" opacity="0.95" />
    <rect x="23" y="8" width="0.92" height="0.92" rx="0.18" opacity="0.95" />
    <rect x="27" y="8" width="0.92" height="0.92" rx="0.18" opacity="0.95" />
    <rect x="1" y="9" width="0.92" height="0.92" rx="0.18" opacity="0.95" />
    <rect x="5" y="9" width="0.92" height="0.92" rx="0.18" opacity="0.95" />
    <rect x="9" y="9" width="0.92" height="0.92" rx="0.18" opacity="0.95" />
    <rect x="13" y="9" width="0.92" height="0.92" rx="0.18" opacity="0.95" />
    <rect x="17" y="9" width="0.92" height="0.92" rx="0.18" opacity="0.95" />
    <rect x="21" y="9" width="0.92" height="0.92" rx="0.18" opacity="0.95" />
    <rect x="25" y="9" width="0.92" height="0.92" rx="0.18" opacity="0.95" />
    <rect x="29" y="9" width="0.92" height="0.92" rx="0.18" opacity="0.95" />
    <rect x="3" y="10" width="0.92" height="0.92" rx="0.18" opacity="0.95" />
    <rect x="7" y="10" width="0.92" height="0.92" rx="0.18" opacity="0.95" />
    <rect x="11" y="10" width="0.92" height="0.92" rx="0.18" opacity="0.95" />
    <rect x="15" y="10" width="0.92" height="0.92" rx="0.18" opacity="0.95" />
    <rect x="19" y="10" width="0.92" height="0.92" rx="0.18" opacity="0.95" />
    <rect x="23" y="10" width="0.92" height="0.92" rx="0.18" opacity="0.95" />
    <rect x="27" y="10" width="0.92" height="0.92" rx="0.18" opacity="0.95" />
    <rect x="1" y="11" width="0.92" height="0.92" rx="0.18" opacity="0.45" />
    <rect x="5" y="11" width="0.92" height="0.92" rx="0.18" opacity="0.95" />
    <rect x="9" y="11" width="0.92" height="0.92" rx="0.18" opacity="0.95" />
    <rect x="13" y="11" width="0.92" height="0.92" rx="0.18" opacity="0.95" />
    <rect x="17" y="11" width="0.92" height="0.92" rx="0.18" opacity="0.95" />
    <rect x="21" y="11" width="0.92" height="0.92" rx="0.18" opacity="0.95" />
    <rect x="25" y="11" width="0.92" height="0.92" rx="0.18" opacity="0.95" />
    <rect x="29" y="11" width="0.92" height="0.92" rx="0.18" opacity="0.65" />
    <rect x="7" y="12" width="0.92" height="0.92" rx="0.18" opacity="0.95" />
    <rect x="11" y="12" width="0.92" height="0.92" rx="0.18" opacity="0.95" />
    <rect x="15" y="12" width="0.92" height="0.92" rx="0.18" opacity="0.95" />
    <rect x="19" y="12" width="0.92" height="0.92" rx="0.18" opacity="0.95" />
    <rect x="23" y="12" width="0.92" height="0.92" rx="0.18" opacity="0.95" />
    <rect x="5" y="13" width="0.92" height="0.92" rx="0.18" opacity="0.45" />
    <rect x="9" y="13" width="0.92" height="0.92" rx="0.18" opacity="0.95" />
    <rect x="13" y="13" width="0.92" height="0.92" rx="0.18" opacity="0.95" />
    <rect x="17" y="13" width="0.92" height="0.92" rx="0.18" opacity="0.95" />
    <rect x="21" y="13" width="0.92" height="0.92" rx="0.18" opacity="0.95" />
    <rect x="25" y="13" width="0.92" height="0.92" rx="0.18" opacity="0.65" />
    <rect x="3" y="14" width="0.92" height="0.92" rx="0.18" opacity="0.45" />
    <rect x="11" y="14" width="0.92" height="0.92" rx="0.18" opacity="0.95" />
    <rect x="15" y="14" width="0.92" height="0.92" rx="0.18" opacity="0.95" />
    <rect x="19" y="14" width="0.92" height="0.92" rx="0.18" opacity="0.95" />
    <rect x="27" y="14" width="0.92" height="0.92" rx="0.18" opacity="0.65" />
    <rect x="1" y="15" width="0.92" height="0.92" rx="0.18" opacity="0.45" />
    <rect x="9" y="15" width="0.92" height="0.92" rx="0.18" opacity="0.45" />
    <rect x="13" y="15" width="0.92" height="0.92" rx="0.18" opacity="0.95" />
    <rect x="17" y="15" width="0.92" height="0.92" rx="0.18" opacity="0.95" />
    <rect x="21" y="15" width="0.92" height="0.92" rx="0.18" opacity="0.65" />
    <rect x="29" y="15" width="0.92" height="0.92" rx="0.18" opacity="0.65" />
    <rect x="7" y="16" width="0.92" height="0.92" rx="0.18" opacity="0.45" />
    <rect x="15" y="16" width="0.92" height="0.92" rx="0.18" opacity="0.95" />
    <rect x="23" y="16" width="0.92" height="0.92" rx="0.18" opacity="0.65" />
    <rect x="5" y="17" width="0.92" height="0.92" rx="0.18" opacity="0.45" />
    <rect x="13" y="17" width="0.92" height="0.92" rx="0.18" opacity="0.45" />
    <rect x="17" y="17" width="0.92" height="0.92" rx="0.18" opacity="0.65" />
    <rect x="25" y="17" width="0.92" height="0.92" rx="0.18" opacity="0.65" />
    <rect x="3" y="18" width="0.92" height="0.92" rx="0.18" opacity="0.45" />
    <rect x="11" y="18" width="0.92" height="0.92" rx="0.18" opacity="0.45" />
    <rect x="19" y="18" width="0.92" height="0.92" rx="0.18" opacity="0.65" />
    <rect x="27" y="18" width="0.92" height="0.92" rx="0.18" opacity="0.65" />
    <rect x="1" y="19" width="0.92" height="0.92" rx="0.18" opacity="0.45" />
    <rect x="9" y="19" width="0.92" height="0.92" rx="0.18" opacity="0.45" />
    <rect x="21" y="19" width="0.92" height="0.92" rx="0.18" opacity="0.65" />
    <rect x="29" y="19" width="0.92" height="0.92" rx="0.18" opacity="0.65" />
    <rect x="7" y="20" width="0.92" height="0.92" rx="0.18" opacity="0.45" />
    <rect x="15" y="20" width="0.92" height="0.92" rx="0.18" opacity="0.65" />
    <rect x="23" y="20" width="0.92" height="0.92" rx="0.18" opacity="0.65" />
    <rect x="5" y="21" width="0.92" height="0.92" rx="0.18" opacity="0.45" />
    <rect x="13" y="21" width="0.92" height="0.92" rx="0.18" opacity="0.45" />
    <rect x="17" y="21" width="0.92" height="0.92" rx="0.18" opacity="0.65" />
    <rect x="25" y="21" width="0.92" height="0.92" rx="0.18" opacity="0.65" />
    <rect x="3" y="22" width="0.92" height="0.92" rx="0.18" opacity="0.45" />
    <rect x="11" y="22" width="0.92" height="0.92" rx="0.18" opacity="0.45" />
    <rect x="19" y="22" width="0.92" height="0.92" rx="0.18" opacity="0.65" />
    <rect x="27" y="22" width="0.92" height="0.92" rx="0.18" opacity="0.65" />
    <rect x="1" y="23" width="0.92" height="0.92" rx="0.18" opacity="0.45" />
    <rect x="9" y="23" width="0.92" height="0.92" rx="0.18" opacity="0.45" />
    <rect x="21" y="23" width="0.92" height="0.92" rx="0.18" opacity="0.65" />
    <rect x="29" y="23" width="0.92" height="0.92" rx="0.18" opacity="0.65" />
    <rect x="7" y="24" width="0.92" height="0.92" rx="0.18" opacity="0.45" />
    <rect x="15" y="24" width="0.92" height="0.92" rx="0.18" opacity="0.65" />
    <rect x="23" y="24" width="0.92" height="0.92" rx="0.18" opacity="0.65" />
    <rect x="5" y="25" width="0.92" height="0.92" rx="0.18" opacity="0.45" />
    <rect x="13" y="25" width="0.92" height="0.92" rx="0.18" opacity="0.45" />
    <rect x="17" y="25" width="0.92" height="0.92" rx="0.18" opacity="0.65" />
    <rect x="25" y="25" width="0.92" height="0.92" rx="0.18" opacity="0.65" />
    <rect x="11" y="26" width="0.92" height="0.92" rx="0.18" opacity="0.45" />
    <rect x="19" y="26" width="0.92" height="0.92" rx="0.18" opacity="0.65" />
    <rect x="9" y="27" width="0.92" height="0.92" rx="0.18" opacity="0.45" />
    <rect x="21" y="27" width="0.92" height="0.92" rx="0.18" opacity="0.65" />
    <rect x="15" y="28" width="0.92" height="0.92" rx="0.18" opacity="0.65" />
    <rect x="13" y="29" width="0.92" height="0.92" rx="0.18" opacity="0.45" />
    <rect x="17" y="29" width="0.92" height="0.92" rx="0.18" opacity="0.65" />
  </g>
</svg>
